<mxfile host="app.diagrams.net" modified="2023-12-04T13:29:00.353Z" agent="Mozilla/5.0 (Windows NT 10.0; Win64; x64) AppleWebKit/537.36 (KHTML, like Gecko) Chrome/119.0.0.0 Safari/537.36" etag="K0MAOJ_OGvxLWKqpDW54" version="22.1.5" type="device">
  <diagram name="Pagina-1" id="5Sdvy97h40zplNkvk6xD">
    <mxGraphModel dx="819" dy="429" grid="1" gridSize="10" guides="1" tooltips="1" connect="1" arrows="1" fold="1" page="1" pageScale="1" pageWidth="827" pageHeight="1169" math="0" shadow="0">
      <root>
        <mxCell id="0" />
        <mxCell id="1" parent="0" />
        <mxCell id="juuAzwRrTGLcYsi3opGR-4" value="" style="html=1;align=center;verticalAlign=top;rounded=1;absoluteArcSize=1;arcSize=10;dashed=0;whiteSpace=wrap;" vertex="1" parent="1">
          <mxGeometry x="230" y="263" width="420" height="127" as="geometry" />
        </mxCell>
        <mxCell id="vkq_Q8_x7mM78rzmFXa2-49" style="edgeStyle=orthogonalEdgeStyle;rounded=0;orthogonalLoop=1;jettySize=auto;html=1;exitX=0.75;exitY=1;exitDx=0;exitDy=0;entryX=0.75;entryY=0;entryDx=0;entryDy=0;" parent="1" source="vkq_Q8_x7mM78rzmFXa2-1" target="vkq_Q8_x7mM78rzmFXa2-2" edge="1">
          <mxGeometry relative="1" as="geometry" />
        </mxCell>
        <mxCell id="vkq_Q8_x7mM78rzmFXa2-50" value="pir.isDetecting() / t := 0; l1.on(); lcd.print(&quot;Welcome&quot;)" style="edgeLabel;html=1;align=center;verticalAlign=middle;resizable=0;points=[];" parent="vkq_Q8_x7mM78rzmFXa2-49" vertex="1" connectable="0">
          <mxGeometry y="1" relative="1" as="geometry">
            <mxPoint x="134" as="offset" />
          </mxGeometry>
        </mxCell>
        <mxCell id="vkq_Q8_x7mM78rzmFXa2-1" value="Sleeping" style="html=1;align=center;verticalAlign=top;rounded=1;absoluteArcSize=1;arcSize=10;dashed=0;whiteSpace=wrap;" parent="1" vertex="1">
          <mxGeometry x="280" y="104" width="140" height="40" as="geometry" />
        </mxCell>
        <mxCell id="vkq_Q8_x7mM78rzmFXa2-47" style="edgeStyle=orthogonalEdgeStyle;rounded=0;orthogonalLoop=1;jettySize=auto;html=1;exitX=0.25;exitY=0;exitDx=0;exitDy=0;entryX=0.25;entryY=1;entryDx=0;entryDy=0;" parent="1" source="vkq_Q8_x7mM78rzmFXa2-2" target="vkq_Q8_x7mM78rzmFXa2-1" edge="1">
          <mxGeometry relative="1" as="geometry" />
        </mxCell>
        <mxCell id="vkq_Q8_x7mM78rzmFXa2-48" value="!pir.isDetecting() &amp;amp; t &amp;gt;= N1" style="edgeLabel;html=1;align=center;verticalAlign=middle;resizable=0;points=[];" parent="vkq_Q8_x7mM78rzmFXa2-47" vertex="1" connectable="0">
          <mxGeometry x="0.15" y="-1" relative="1" as="geometry">
            <mxPoint x="-86" y="3" as="offset" />
          </mxGeometry>
        </mxCell>
        <mxCell id="juuAzwRrTGLcYsi3opGR-8" style="edgeStyle=orthogonalEdgeStyle;rounded=0;orthogonalLoop=1;jettySize=auto;html=1;exitX=0.5;exitY=1;exitDx=0;exitDy=0;entryX=0.25;entryY=0;entryDx=0;entryDy=0;" edge="1" parent="1" source="vkq_Q8_x7mM78rzmFXa2-2" target="juuAzwRrTGLcYsi3opGR-4">
          <mxGeometry relative="1" as="geometry">
            <Array as="points">
              <mxPoint x="335" y="224" />
            </Array>
          </mxGeometry>
        </mxCell>
        <mxCell id="juuAzwRrTGLcYsi3opGR-9" value="pir.isDetecting() &amp;amp; t &amp;gt;= N1 / lcd.print(&quot;Proceed to washing area&quot;); gate.open();" style="edgeLabel;html=1;align=center;verticalAlign=middle;resizable=0;points=[];" vertex="1" connectable="0" parent="juuAzwRrTGLcYsi3opGR-8">
          <mxGeometry x="-0.0573" y="1" relative="1" as="geometry">
            <mxPoint x="194" y="5" as="offset" />
          </mxGeometry>
        </mxCell>
        <mxCell id="vkq_Q8_x7mM78rzmFXa2-2" value="Awake" style="html=1;align=center;verticalAlign=top;rounded=1;absoluteArcSize=1;arcSize=10;dashed=0;whiteSpace=wrap;" parent="1" vertex="1">
          <mxGeometry x="280" y="184" width="140" height="40" as="geometry" />
        </mxCell>
        <mxCell id="vkq_Q8_x7mM78rzmFXa2-95" style="edgeStyle=orthogonalEdgeStyle;rounded=0;orthogonalLoop=1;jettySize=auto;html=1;exitX=0;exitY=0.5;exitDx=0;exitDy=0;entryX=0;entryY=0.5;entryDx=0;entryDy=0;" parent="1" source="vkq_Q8_x7mM78rzmFXa2-3" target="vkq_Q8_x7mM78rzmFXa2-1" edge="1">
          <mxGeometry relative="1" as="geometry">
            <Array as="points">
              <mxPoint x="40" y="917" />
              <mxPoint x="40" y="124" />
            </Array>
          </mxGeometry>
        </mxCell>
        <mxCell id="vkq_Q8_x7mM78rzmFXa2-96" value="after N4 / l3.off(); washCount++" style="edgeLabel;html=1;align=center;verticalAlign=middle;resizable=0;points=[];" parent="vkq_Q8_x7mM78rzmFXa2-95" vertex="1" connectable="0">
          <mxGeometry x="-0.7884" relative="1" as="geometry">
            <mxPoint x="-4" y="20" as="offset" />
          </mxGeometry>
        </mxCell>
        <mxCell id="vkq_Q8_x7mM78rzmFXa2-98" style="edgeStyle=orthogonalEdgeStyle;rounded=0;orthogonalLoop=1;jettySize=auto;html=1;exitX=0.25;exitY=0;exitDx=0;exitDy=0;entryX=0.25;entryY=1;entryDx=0;entryDy=0;" parent="1" source="vkq_Q8_x7mM78rzmFXa2-3" target="vkq_Q8_x7mM78rzmFXa2-6" edge="1">
          <mxGeometry relative="1" as="geometry" />
        </mxCell>
        <mxCell id="vkq_Q8_x7mM78rzmFXa2-99" value="sonar.getDistance() &amp;lt; MAXDIST" style="edgeLabel;html=1;align=center;verticalAlign=middle;resizable=0;points=[];" parent="vkq_Q8_x7mM78rzmFXa2-98" vertex="1" connectable="0">
          <mxGeometry x="0.0285" y="-1" relative="1" as="geometry">
            <mxPoint x="-96" as="offset" />
          </mxGeometry>
        </mxCell>
        <mxCell id="vkq_Q8_x7mM78rzmFXa2-3" value="Check-out" style="html=1;align=center;verticalAlign=top;rounded=1;absoluteArcSize=1;arcSize=10;dashed=0;whiteSpace=wrap;" parent="1" vertex="1">
          <mxGeometry x="280" y="897.14" width="140" height="40" as="geometry" />
        </mxCell>
        <mxCell id="vkq_Q8_x7mM78rzmFXa2-30" style="edgeStyle=orthogonalEdgeStyle;rounded=0;orthogonalLoop=1;jettySize=auto;html=1;" parent="1" edge="1">
          <mxGeometry relative="1" as="geometry">
            <mxPoint x="389.9985714285715" y="847.1399999999999" as="sourcePoint" />
            <mxPoint x="389.9985714285715" y="897.1399999999999" as="targetPoint" />
            <Array as="points">
              <mxPoint x="389.97" y="863" />
              <mxPoint x="389.97" y="863" />
            </Array>
          </mxGeometry>
        </mxCell>
        <mxCell id="vkq_Q8_x7mM78rzmFXa2-94" value="sonar.getDistance() &amp;gt;= MAXDIST" style="edgeLabel;html=1;align=center;verticalAlign=middle;resizable=0;points=[];" parent="vkq_Q8_x7mM78rzmFXa2-30" vertex="1" connectable="0">
          <mxGeometry x="-0.0456" y="1" relative="1" as="geometry">
            <mxPoint x="99" as="offset" />
          </mxGeometry>
        </mxCell>
        <mxCell id="vkq_Q8_x7mM78rzmFXa2-6" value="Wash-end" style="html=1;align=center;verticalAlign=top;rounded=1;absoluteArcSize=1;arcSize=10;dashed=0;whiteSpace=wrap;" parent="1" vertex="1">
          <mxGeometry x="280" y="807.14" width="140" height="40" as="geometry" />
        </mxCell>
        <mxCell id="juuAzwRrTGLcYsi3opGR-10" style="edgeStyle=orthogonalEdgeStyle;rounded=0;orthogonalLoop=1;jettySize=auto;html=1;exitX=1;exitY=0.25;exitDx=0;exitDy=0;entryX=0;entryY=0.25;entryDx=0;entryDy=0;" edge="1" parent="1" source="vkq_Q8_x7mM78rzmFXa2-9" target="juuAzwRrTGLcYsi3opGR-1">
          <mxGeometry relative="1" as="geometry" />
        </mxCell>
        <mxCell id="juuAzwRrTGLcYsi3opGR-12" value="sonar.getDistance() &amp;lt; MIN_DIST" style="edgeLabel;html=1;align=center;verticalAlign=middle;resizable=0;points=[];" vertex="1" connectable="0" parent="juuAzwRrTGLcYsi3opGR-10">
          <mxGeometry x="-0.3054" y="1" relative="1" as="geometry">
            <mxPoint x="24" y="-9" as="offset" />
          </mxGeometry>
        </mxCell>
        <mxCell id="vkq_Q8_x7mM78rzmFXa2-9" value="Open-gate&lt;br&gt;" style="html=1;align=center;verticalAlign=top;rounded=1;absoluteArcSize=1;arcSize=10;dashed=0;whiteSpace=wrap;" parent="1" vertex="1">
          <mxGeometry x="240" y="284" width="100" height="40" as="geometry" />
        </mxCell>
        <mxCell id="juuAzwRrTGLcYsi3opGR-20" style="edgeStyle=orthogonalEdgeStyle;rounded=0;orthogonalLoop=1;jettySize=auto;html=1;exitX=0.5;exitY=1;exitDx=0;exitDy=0;entryX=0.346;entryY=0.008;entryDx=0;entryDy=0;entryPerimeter=0;" edge="1" parent="1" source="vkq_Q8_x7mM78rzmFXa2-10" target="vkq_Q8_x7mM78rzmFXa2-61">
          <mxGeometry relative="1" as="geometry">
            <mxPoint x="280" y="570" as="targetPoint" />
          </mxGeometry>
        </mxCell>
        <mxCell id="juuAzwRrTGLcYsi3opGR-21" value="startButton.isPressed() / t := 0" style="edgeLabel;html=1;align=center;verticalAlign=middle;resizable=0;points=[];" vertex="1" connectable="0" parent="juuAzwRrTGLcYsi3opGR-20">
          <mxGeometry x="-0.016" y="1" relative="1" as="geometry">
            <mxPoint x="-81" y="-5" as="offset" />
          </mxGeometry>
        </mxCell>
        <mxCell id="vkq_Q8_x7mM78rzmFXa2-10" value="Ready" style="html=1;align=center;verticalAlign=top;rounded=1;absoluteArcSize=1;arcSize=10;dashed=0;whiteSpace=wrap;" parent="1" vertex="1">
          <mxGeometry x="210" y="430" width="140" height="40" as="geometry" />
        </mxCell>
        <mxCell id="vkq_Q8_x7mM78rzmFXa2-63" style="edgeStyle=orthogonalEdgeStyle;rounded=0;orthogonalLoop=1;jettySize=auto;html=1;exitX=0.5;exitY=1;exitDx=0;exitDy=0;entryX=0.5;entryY=0;entryDx=0;entryDy=0;" parent="1" source="vkq_Q8_x7mM78rzmFXa2-61" target="vkq_Q8_x7mM78rzmFXa2-6" edge="1">
          <mxGeometry relative="1" as="geometry" />
        </mxCell>
        <mxCell id="vkq_Q8_x7mM78rzmFXa2-87" value="t &amp;gt;= N3 / gate.open(); l2.off; l3.on();&lt;br&gt;lcd.print(&quot;Washing complete, you can leave the area&quot;)" style="edgeLabel;html=1;align=center;verticalAlign=middle;resizable=0;points=[];" parent="vkq_Q8_x7mM78rzmFXa2-63" vertex="1" connectable="0">
          <mxGeometry x="-0.1929" relative="1" as="geometry">
            <mxPoint x="140" as="offset" />
          </mxGeometry>
        </mxCell>
        <mxCell id="vkq_Q8_x7mM78rzmFXa2-61" value="" style="html=1;align=center;verticalAlign=top;rounded=1;absoluteArcSize=1;arcSize=10;dashed=0;whiteSpace=wrap;" parent="1" vertex="1">
          <mxGeometry x="120" y="573" width="460" height="180" as="geometry" />
        </mxCell>
        <mxCell id="vkq_Q8_x7mM78rzmFXa2-78" style="edgeStyle=orthogonalEdgeStyle;rounded=0;orthogonalLoop=1;jettySize=auto;html=1;exitX=1;exitY=0.25;exitDx=0;exitDy=0;entryX=0;entryY=0.25;entryDx=0;entryDy=0;" parent="1" source="vkq_Q8_x7mM78rzmFXa2-64" target="vkq_Q8_x7mM78rzmFXa2-65" edge="1">
          <mxGeometry relative="1" as="geometry" />
        </mxCell>
        <mxCell id="vkq_Q8_x7mM78rzmFXa2-91" value="temp.getDetection() &amp;gt; MAXTEMP" style="edgeLabel;html=1;align=center;verticalAlign=middle;resizable=0;points=[];" parent="vkq_Q8_x7mM78rzmFXa2-78" vertex="1" connectable="0">
          <mxGeometry x="-0.119" relative="1" as="geometry">
            <mxPoint x="15" y="-20" as="offset" />
          </mxGeometry>
        </mxCell>
        <mxCell id="vkq_Q8_x7mM78rzmFXa2-64" value="Wash" style="html=1;align=center;verticalAlign=top;rounded=1;absoluteArcSize=1;arcSize=10;dashed=0;whiteSpace=wrap;" parent="1" vertex="1">
          <mxGeometry x="190" y="633" width="80" height="40" as="geometry" />
        </mxCell>
        <mxCell id="vkq_Q8_x7mM78rzmFXa2-72" style="edgeStyle=orthogonalEdgeStyle;rounded=0;orthogonalLoop=1;jettySize=auto;html=1;exitX=1;exitY=0.5;exitDx=0;exitDy=0;entryX=0.5;entryY=1;entryDx=0;entryDy=0;" parent="1" source="vkq_Q8_x7mM78rzmFXa2-65" target="vkq_Q8_x7mM78rzmFXa2-71" edge="1">
          <mxGeometry relative="1" as="geometry" />
        </mxCell>
        <mxCell id="vkq_Q8_x7mM78rzmFXa2-93" value="after N5&lt;br&gt;/&amp;nbsp;console.print(&quot;Mantainance required&quot;);&lt;br&gt;lcd.print(&quot;Detected a Problem - Please Wait&quot;)" style="edgeLabel;html=1;align=center;verticalAlign=middle;resizable=0;points=[];" parent="vkq_Q8_x7mM78rzmFXa2-72" vertex="1" connectable="0">
          <mxGeometry x="-0.0079" relative="1" as="geometry">
            <mxPoint x="70" y="27" as="offset" />
          </mxGeometry>
        </mxCell>
        <mxCell id="vkq_Q8_x7mM78rzmFXa2-79" style="edgeStyle=orthogonalEdgeStyle;rounded=0;orthogonalLoop=1;jettySize=auto;html=1;exitX=0;exitY=0.75;exitDx=0;exitDy=0;entryX=1;entryY=0.75;entryDx=0;entryDy=0;" parent="1" source="vkq_Q8_x7mM78rzmFXa2-65" target="vkq_Q8_x7mM78rzmFXa2-64" edge="1">
          <mxGeometry relative="1" as="geometry" />
        </mxCell>
        <mxCell id="vkq_Q8_x7mM78rzmFXa2-92" value="temp.getDetection() &amp;lt;= MAXTEMP" style="edgeLabel;html=1;align=center;verticalAlign=middle;resizable=0;points=[];" parent="vkq_Q8_x7mM78rzmFXa2-79" vertex="1" connectable="0">
          <mxGeometry x="0.0642" y="1" relative="1" as="geometry">
            <mxPoint x="10" y="19" as="offset" />
          </mxGeometry>
        </mxCell>
        <mxCell id="vkq_Q8_x7mM78rzmFXa2-65" value="Overheat" style="html=1;align=center;verticalAlign=top;rounded=1;absoluteArcSize=1;arcSize=10;dashed=0;whiteSpace=wrap;" parent="1" vertex="1">
          <mxGeometry x="450" y="633" width="80" height="40" as="geometry" />
        </mxCell>
        <mxCell id="vkq_Q8_x7mM78rzmFXa2-73" style="edgeStyle=orthogonalEdgeStyle;rounded=0;orthogonalLoop=1;jettySize=auto;html=1;exitX=0;exitY=0.5;exitDx=0;exitDy=0;entryX=0.5;entryY=0;entryDx=0;entryDy=0;" parent="1" source="vkq_Q8_x7mM78rzmFXa2-71" target="vkq_Q8_x7mM78rzmFXa2-61" edge="1">
          <mxGeometry relative="1" as="geometry" />
        </mxCell>
        <mxCell id="vkq_Q8_x7mM78rzmFXa2-89" value="mantainanceButton.isPressed()&lt;br&gt;/ console.print(&quot;Mantainance done&quot;)" style="edgeLabel;html=1;align=center;verticalAlign=middle;resizable=0;points=[];" parent="vkq_Q8_x7mM78rzmFXa2-73" vertex="1" connectable="0">
          <mxGeometry x="-0.4719" y="-1" relative="1" as="geometry">
            <mxPoint x="-30" y="21" as="offset" />
          </mxGeometry>
        </mxCell>
        <mxCell id="vkq_Q8_x7mM78rzmFXa2-71" value="Emergency" style="html=1;align=center;verticalAlign=top;rounded=1;absoluteArcSize=1;arcSize=10;dashed=0;whiteSpace=wrap;" parent="1" vertex="1">
          <mxGeometry x="560" y="498" width="140" height="40" as="geometry" />
        </mxCell>
        <mxCell id="vkq_Q8_x7mM78rzmFXa2-86" style="edgeStyle=orthogonalEdgeStyle;rounded=0;orthogonalLoop=1;jettySize=auto;html=1;exitX=1;exitY=0.5;exitDx=0;exitDy=0;entryX=0;entryY=0.5;entryDx=0;entryDy=0;" parent="1" source="vkq_Q8_x7mM78rzmFXa2-85" target="vkq_Q8_x7mM78rzmFXa2-64" edge="1">
          <mxGeometry relative="1" as="geometry">
            <Array as="points">
              <mxPoint x="170" y="653" />
              <mxPoint x="170" y="653" />
            </Array>
          </mxGeometry>
        </mxCell>
        <mxCell id="vkq_Q8_x7mM78rzmFXa2-85" value="" style="shape=ellipse;fillColor=#000000;strokeColor=none;html=1;sketch=0;" parent="1" vertex="1">
          <mxGeometry x="140" y="643" width="20" height="20" as="geometry" />
        </mxCell>
        <mxCell id="vkq_Q8_x7mM78rzmFXa2-101" value="&lt;font style=&quot;font-size: 9px;&quot;&gt;after 0.1s / l2.isOn() ? l2.on() : l2.off()&lt;/font&gt;" style="text;html=1;align=center;verticalAlign=middle;resizable=0;points=[];autosize=1;strokeColor=none;fillColor=none;" parent="1" vertex="1">
          <mxGeometry x="355" y="360" width="170" height="30" as="geometry" />
        </mxCell>
        <mxCell id="vkq_Q8_x7mM78rzmFXa2-102" value="&lt;font style=&quot;font-size: 10px;&quot;&gt;after 0.5s / l2.isOn() ? l2.on() : l2.off()&lt;br&gt;do / updateLoadingBar()&lt;br&gt;&lt;/font&gt;" style="text;html=1;align=center;verticalAlign=middle;resizable=0;points=[];autosize=1;strokeColor=none;fillColor=none;" parent="1" vertex="1">
          <mxGeometry x="255" y="713" width="190" height="40" as="geometry" />
        </mxCell>
        <mxCell id="juuAzwRrTGLcYsi3opGR-11" style="edgeStyle=orthogonalEdgeStyle;rounded=0;orthogonalLoop=1;jettySize=auto;html=1;exitX=0;exitY=0.75;exitDx=0;exitDy=0;entryX=1;entryY=0.75;entryDx=0;entryDy=0;" edge="1" parent="1" source="juuAzwRrTGLcYsi3opGR-1" target="vkq_Q8_x7mM78rzmFXa2-9">
          <mxGeometry relative="1" as="geometry" />
        </mxCell>
        <mxCell id="juuAzwRrTGLcYsi3opGR-13" value="sonar.getDistance() &amp;gt;= MIN_DIST" style="edgeLabel;html=1;align=center;verticalAlign=middle;resizable=0;points=[];" vertex="1" connectable="0" parent="juuAzwRrTGLcYsi3opGR-11">
          <mxGeometry x="-0.0637" y="2" relative="1" as="geometry">
            <mxPoint x="-5" y="12" as="offset" />
          </mxGeometry>
        </mxCell>
        <mxCell id="juuAzwRrTGLcYsi3opGR-1" value="Entering" style="html=1;align=center;verticalAlign=top;rounded=1;absoluteArcSize=1;arcSize=10;dashed=0;whiteSpace=wrap;" vertex="1" parent="1">
          <mxGeometry x="530" y="284" width="100" height="40" as="geometry" />
        </mxCell>
        <mxCell id="juuAzwRrTGLcYsi3opGR-14" style="edgeStyle=orthogonalEdgeStyle;rounded=0;orthogonalLoop=1;jettySize=auto;html=1;exitX=0.5;exitY=1;exitDx=0;exitDy=0;entryX=1;entryY=0.5;entryDx=0;entryDy=0;" edge="1" parent="1" source="juuAzwRrTGLcYsi3opGR-1" target="vkq_Q8_x7mM78rzmFXa2-10">
          <mxGeometry relative="1" as="geometry">
            <Array as="points">
              <mxPoint x="610" y="324" />
              <mxPoint x="610" y="450" />
            </Array>
          </mxGeometry>
        </mxCell>
        <mxCell id="juuAzwRrTGLcYsi3opGR-15" value="&lt;div style=&quot;border-color: var(--border-color);&quot;&gt;after N2&lt;/div&gt;&lt;div style=&quot;border-color: var(--border-color);&quot;&gt;/ lcd.print(&quot;Ready to wash&quot;); gate.close(); l2.on()&lt;/div&gt;" style="edgeLabel;html=1;align=center;verticalAlign=middle;resizable=0;points=[];" vertex="1" connectable="0" parent="juuAzwRrTGLcYsi3opGR-14">
          <mxGeometry x="-0.0667" y="-2" relative="1" as="geometry">
            <mxPoint x="-94" y="-18" as="offset" />
          </mxGeometry>
        </mxCell>
        <mxCell id="juuAzwRrTGLcYsi3opGR-17" style="edgeStyle=orthogonalEdgeStyle;rounded=0;orthogonalLoop=1;jettySize=auto;html=1;exitX=0.5;exitY=1;exitDx=0;exitDy=0;" edge="1" parent="1" source="juuAzwRrTGLcYsi3opGR-16" target="vkq_Q8_x7mM78rzmFXa2-1">
          <mxGeometry relative="1" as="geometry" />
        </mxCell>
        <mxCell id="juuAzwRrTGLcYsi3opGR-18" value="/ washCount = 0" style="edgeLabel;html=1;align=center;verticalAlign=middle;resizable=0;points=[];" vertex="1" connectable="0" parent="juuAzwRrTGLcYsi3opGR-17">
          <mxGeometry x="-0.2" y="1" relative="1" as="geometry">
            <mxPoint x="49" as="offset" />
          </mxGeometry>
        </mxCell>
        <mxCell id="juuAzwRrTGLcYsi3opGR-16" value="" style="shape=ellipse;fillColor=#000000;strokeColor=none;html=1;sketch=0;" vertex="1" parent="1">
          <mxGeometry x="340" y="40" width="20" height="20" as="geometry" />
        </mxCell>
      </root>
    </mxGraphModel>
  </diagram>
</mxfile>
